<svg xmlns="http://www.w3.org/2000/svg" viewBox="0 0 120 150" fill="none">
  <ellipse cx="45" cy="138" rx="14" ry="8" fill="#2E21A6"></ellipse>
  <ellipse cx="75" cy="138" rx="14" ry="8" fill="#2E21A6"></ellipse>
  <ellipse cx="60" cy="105" rx="32" ry="35" fill="#4125D2"></ellipse>
  <ellipse cx="60" cy="108" rx="20" ry="22" fill="#6662DA"></ellipse>
  <ellipse cx="33" cy="100" rx="7" ry="10" fill="#4125D2"></ellipse>
  <ellipse cx="87" cy="100" rx="7" ry="10" fill="#4125D2"></ellipse>
  <ellipse cx="32" cy="36" rx="10" ry="13" fill="#4125D2" transform="rotate(-20,32,36)"></ellipse>
  <ellipse cx="88" cy="36" rx="10" ry="13" fill="#4125D2" transform="rotate(20,88,36)"></ellipse>
  <ellipse cx="32" cy="36" rx="6" ry="8" fill="#6662DA" transform="rotate(-20,32,36)"></ellipse>
  <ellipse cx="88" cy="36" rx="6" ry="8" fill="#6662DA" transform="rotate(20,88,36)"></ellipse>
  <circle cx="60" cy="50" r="28" fill="#4125D2"></circle>
  <circle cx="60" cy="53" r="21" fill="#EFE5FC"></circle>
  <path d="M33,46 Q42,22 60,18 Q78,22 87,46" fill="#F59E0B"></path>
  <circle cx="60" cy="16" r="5" fill="#F59E0B"></circle>
  <path d="M46,49 Q50,53 54,49" stroke="#1D105E" stroke-width="2.5" stroke-linecap="round" fill="none"></path>
  <path d="M66,49 Q70,53 74,49" stroke="#1D105E" stroke-width="2.5" stroke-linecap="round" fill="none"></path>
  <ellipse cx="60" cy="60" rx="4" ry="2.5" fill="#4125D2" opacity="0.3"></ellipse>
  <text x="82" y="28" font-family="Onest,sans-serif" font-size="12" font-weight="700" fill="#F59E0B" opacity="0.7">z</text>
  <text x="90" y="18" font-family="Onest,sans-serif" font-size="15" font-weight="700" fill="#F59E0B" opacity="0.5">z</text>
  <text x="100" y="8" font-family="Onest,sans-serif" font-size="18" font-weight="700" fill="#F59E0B" opacity="0.3">z</text>
</svg>